<svg id="Capa_1" enable-background="new 0 0 512 512" height="512" viewBox="0 0 512 512" width="512" xmlns="http://www.w3.org/2000/svg"><path d="m247.389 371.407h-22.802c-5.522 0-10-4.478-10-10s4.478-10 10-10h22.802c5.522 0 10 4.478 10 10 0 5.523-4.478 10-10 10z"/><path d="m236.17 413.96c-4.121 0-7.898-2.636-9.35-6.483-1.49-3.947-.272-8.581 3.006-11.251 3.241-2.64 7.889-2.996 11.481-.846 3.574 2.139 5.5 6.436 4.673 10.53-.933 4.611-5.097 8.05-9.81 8.05z"/><path d="m398.321 351.409c-1.179 0-2.376-.21-3.544-.652-5.164-1.958-7.763-7.732-5.805-12.896l18.024-47.533c1.958-5.163 7.73-7.76 12.896-5.805 5.164 1.958 7.763 7.732 5.805 12.896l-18.024 47.533c-1.515 3.996-5.317 6.457-9.352 6.457z"/><path d="m445.003 350.61c-1.701 0-3.425-.435-5.003-1.349-4.778-2.768-6.408-8.887-3.641-13.666l10.609-18.314-10.52-17.448c-2.852-4.73-1.329-10.875 3.4-13.727 4.729-2.855 10.876-1.329 13.727 3.4l13.571 22.51c1.883 3.122 1.917 7.021.09 10.176l-13.571 23.428c-1.854 3.202-5.211 4.99-8.662 4.99z"/><path d="m369.669 350.61c-3.451 0-6.809-1.788-8.663-4.989l-13.571-23.428c-1.827-3.154-1.793-7.054.09-10.176l13.571-22.51c2.851-4.73 8.997-6.255 13.727-3.4 4.729 2.852 6.252 8.997 3.4 13.727l-10.52 17.448 10.609 18.314c2.768 4.779 1.138 10.897-3.641 13.666-1.577.914-3.302 1.348-5.002 1.348z"/><path d="m115.802 186.01c-1.18 0-2.379-.21-3.547-.654-5.164-1.96-7.761-7.734-5.8-12.898l21.856-57.571c1.96-5.164 7.735-7.763 12.898-5.8 5.164 1.96 7.761 7.734 5.8 12.897l-21.857 57.571c-1.516 3.996-5.317 6.455-9.35 6.455z"/><path d="m172.409 185.043c-1.703 0-3.428-.436-5.007-1.352-4.777-2.771-6.404-8.89-3.634-13.667l13.487-23.258-13.398-22.196c-2.854-4.729-1.334-10.875 3.394-13.729 4.729-2.856 10.875-1.334 13.729 3.394l16.456 27.263c1.886 3.125 1.92 7.028.089 10.184l-16.456 28.376c-1.854 3.198-5.211 4.984-8.66 4.985z"/><path d="m81.055 185.043c-3.449 0-6.806-1.787-8.66-4.985l-16.456-28.376c-1.831-3.156-1.797-7.059.089-10.184l16.456-27.263c2.855-4.728 9.002-6.248 13.729-3.394s6.247 9.001 3.394 13.729l-13.398 22.196 13.487 23.258c2.771 4.777 1.144 10.896-3.634 13.667-1.58.916-3.305 1.352-5.007 1.352z"/><path d="m475.122 164.226h-3.147v-77.714c0-27.932-22.713-50.656-50.631-50.656h-370.713c-27.918-.001-50.631 22.724-50.631 50.656v276.789c0 27.932 22.713 50.655 50.631 50.655h108.005l-13.225 49.612c-.801 3.002-.16 6.205 1.732 8.669 1.893 2.464 4.823 3.907 7.93 3.907h161.831c2.839 0 5.53-1.206 7.418-3.293 4.645 2.115 9.802 3.293 15.229 3.293h135.572c20.335 0 36.878-16.544 36.878-36.879v-238.161c-.001-20.335-16.544-36.878-36.879-36.878zm-152.45 62.87h169.328v181.088h-169.328zm169.328-25.992v5.992h-169.328v-5.992c0-7.12 4.431-13.224 10.68-15.699.099-.036.197-.074.295-.113 1.838-.688 3.827-1.065 5.903-1.065h135.572c9.307-.001 16.878 7.57 16.878 16.877zm-441.369-145.249h370.714c16.89 0 30.631 13.752 30.631 30.656v77.714h-112.426c-3.952 0-7.761.625-11.333 1.781h-85.727c-5.522 0-10 4.478-10 10s4.478 10 10 10h63.415c-2.077 4.61-3.233 9.721-3.233 15.097v13.343h-238.083c-5.522 0-10 4.477-10 10 0 5.522 4.477 10 10 10h238.083v28.438h-238.083c-5.522 0-10 4.478-10 10s4.477 10 10 10h238.083v30.98h-282.672v-227.352c0-16.905 13.741-30.657 30.631-30.657zm117.456 400.29 11.247-42.188h11.449c5.523 0 10-4.478 10-10s-4.477-10-10-10h-140.152c-16.89 0-30.631-13.752-30.631-30.655v-29.436h282.672v60.091h-21.478c-5.522 0-10 4.478-10 10s4.478 10 10 10h11.448l11.247 42.188zm323.913-16.879c0 9.307-7.571 16.879-16.878 16.879h-135.572c-9.307 0-16.878-7.572-16.878-16.879v-11.082h169.328z"/></svg>