<svg id="Capa_1" enable-background="new 0 0 512 512" height="512" viewBox="0 0 512 512" width="512" xmlns="http://www.w3.org/2000/svg"><path d="m212.553 100.486h-110.864c-5.522 0-10-4.478-10-10s4.478-10 10-10h110.863c5.522 0 10 4.478 10 10 .001 5.523-4.477 10-9.999 10z"/><path d="m56.25 100.479c-4.121 0-7.905-2.619-9.36-6.472-1.486-3.933-.275-8.536 2.971-11.216 3.055-2.522 7.43-2.998 10.954-1.197 3.796 1.939 5.978 6.247 5.305 10.456-.766 4.798-5.008 8.429-9.87 8.429z"/><path d="m447.856 100.486h-13.694c-5.523 0-10-4.478-10-10s4.477-10 10-10h13.694c5.522 0 10 4.478 10 10 0 5.523-4.477 10-10 10z"/><path d="m385.808 100.486h-13.694c-5.523 0-10-4.478-10-10s4.477-10 10-10h13.694c5.523 0 10 4.478 10 10 0 5.523-4.478 10-10 10z"/><path d="m323.759 100.486h-13.693c-5.522 0-10-4.478-10-10s4.478-10 10-10h13.693c5.523 0 10 4.478 10 10 0 5.523-4.478 10-10 10z"/><path d="m75.602 401.41h142.698c4.427 16.675 19.651 29 37.7 29s33.273-12.325 37.7-29h142.698c5.522 0 10-4.478 10-10 0-33.948-9.048-67.278-26.166-96.387-16.61-28.244-40.363-51.876-68.69-68.34-.014-.008-.027-.015-.041-.023-28.888-16.78-61.91-25.649-95.501-25.649s-66.613 8.869-95.501 25.649c-.013.008-.027.015-.041.023-28.327 16.464-52.08 40.096-68.69 68.34-17.118 29.108-26.166 62.439-26.166 96.387 0 5.523 4.477 10 10 10zm180.398 9c-10.477 0-19-8.523-19-19s8.523-19 19-19 19 8.523 19 19-8.523 19-19 19zm170.102-29h-132.402c-1.694-6.383-4.97-12.127-9.381-16.788l65.743-115.319c44.556 29.58 72.876 78.776 76.04 132.107zm-170.102-160.398c26.75 0 53.089 6.279 76.772 18.234l-65.466 114.836c-.432-.131-.868-.255-1.306-.371v-40.34c0-5.522-4.478-10-10-10-5.523 0-10 4.478-10 10v40.34c-.439.116-.874.24-1.306.371l-65.466-114.836c23.683-11.955 50.022-18.234 76.772-18.234zm-94.061 28.291 65.743 115.319c-4.411 4.661-7.687 10.405-9.381 16.788h-132.403c3.165-53.331 31.484-102.527 76.041-132.107z"/><path d="m470.111 38.471h-428.222c-23.098 0-41.889 18.822-41.889 41.959v351.14c0 23.136 18.791 41.959 41.889 41.959h428.223c23.098 0 41.889-18.823 41.889-41.959v-351.14c-.001-23.137-18.792-41.959-41.89-41.959zm-450.111 41.959c0-12.108 9.819-21.959 21.889-21.959h428.223c12.069 0 21.889 9.851 21.889 21.959v42.072h-472.001zm472 351.14c0 12.108-9.819 21.959-21.889 21.959h-428.222c-12.07 0-21.889-9.85-21.889-21.959v-289.068h472z"/></svg>