<svg id="Capa_1" enable-background="new 0 0 512 512" height="512" viewBox="0 0 512 512" width="512" xmlns="http://www.w3.org/2000/svg"><path d="m212.553 100.486h-110.864c-5.523 0-10-4.478-10-10s4.477-10 10-10h110.864c5.523 0 10 4.478 10 10 0 5.523-4.477 10-10 10z"/><path d="m56.25 100.49c-4.199 0-7.977-2.713-9.407-6.636-1.404-3.853-.204-8.35 2.938-10.993 3.288-2.766 8.087-3.139 11.745-.867 3.492 2.169 5.335 6.414 4.523 10.445-.928 4.613-5.082 8.051-9.799 8.051z"/><path d="m447.856 100.486h-13.694c-5.523 0-10-4.478-10-10s4.477-10 10-10h13.694c5.522 0 10 4.478 10 10 0 5.523-4.477 10-10 10z"/><path d="m385.808 100.486h-13.694c-5.523 0-10-4.478-10-10s4.477-10 10-10h13.694c5.523 0 10 4.478 10 10 0 5.523-4.478 10-10 10z"/><path d="m323.759 100.486h-13.693c-5.522 0-10-4.478-10-10s4.478-10 10-10h13.693c5.523 0 10 4.478 10 10 0 5.523-4.478 10-10 10z"/><path d="m470.111 38.471h-428.222c-23.098 0-41.889 18.822-41.889 41.959v351.14c0 23.136 18.791 41.959 41.889 41.959h428.223c23.098 0 41.889-18.823 41.889-41.959v-351.14c-.001-23.137-18.792-41.959-41.89-41.959zm-450.111 41.959c0-12.108 9.819-21.959 21.889-21.959h428.223c12.069 0 21.889 9.851 21.889 21.959v42.072h-472.001zm125.439 325.433c0 5.522 4.477 10 10 10s10-4.478 10-10v-52.97h47.04v100.636h-114.081v-141.3h47.041zm87.04-142.504h47.041v142.504c0 5.522 4.478 10 10 10 5.523 0 10-4.478 10-10v-112.362h47.04v160.028h-114.081zm134.081 190.17v-240.248h47.041v240.248zm125.44-21.959c0 12.108-9.819 21.959-21.889 21.959h-36.51v-250.248c0-5.522-4.478-10-10-10h-67.041c-5.522 0-10 4.478-10 10v70.22h-47.04v-20.142c0-5.523-4.478-10-10-10h-67.041c-5.523 0-10 4.477-10 10v79.534h-47.04v-30.664c0-5.522-4.477-10-10-10h-67.041c-5.523 0-10 4.478-10 10v151.3h-36.51c-12.069 0-21.888-9.85-21.888-21.959v-289.068h472z"/></svg>