<svg id="Capa_1" enable-background="new 0 0 512 512" height="512" viewBox="0 0 512 512" width="512" xmlns="http://www.w3.org/2000/svg"><path d="m256.18 511.978c-4.17 0-7.989-2.702-9.402-6.615-1.377-3.812-.245-8.228 2.809-10.902 3.286-2.876 8.168-3.25 11.876-.97 3.53 2.17 5.35 6.468 4.505 10.515-.955 4.577-5.103 7.972-9.788 7.972z"/><path d="m197.288 165.385c-1.693 0-3.401-.43-4.958-1.319l-16.499-9.434c-4.795-2.742-6.459-8.851-3.718-13.645 2.742-4.794 8.852-6.456 13.645-3.718l9.144 5.229 14.203-17.406c3.492-4.277 9.791-4.915 14.07-1.426 4.279 3.492 4.917 9.791 1.426 14.07l-19.56 23.971c-1.957 2.398-4.831 3.678-7.753 3.678z"/><path d="m331.206 156.401h-65.5c-5.523 0-10-4.478-10-10s4.477-10 10-10h65.5c5.523 0 10 4.478 10 10s-4.478 10-10 10z"/><path d="m197.288 232.38c-1.693 0-3.401-.43-4.958-1.319l-16.499-9.434c-4.795-2.742-6.459-8.851-3.718-13.646 2.742-4.794 8.852-6.456 13.645-3.718l9.144 5.229 14.203-17.406c3.492-4.277 9.791-4.916 14.07-1.426 4.279 3.492 4.917 9.791 1.426 14.07l-19.56 23.971c-1.957 2.398-4.831 3.679-7.753 3.679z"/><path d="m331.206 223.395h-65.5c-5.523 0-10-4.478-10-10 0-5.523 4.477-10 10-10h65.5c5.523 0 10 4.477 10 10s-4.478 10-10 10z"/><path d="m197.288 299.375c-1.693 0-3.401-.43-4.958-1.319l-16.499-9.434c-4.795-2.742-6.459-8.851-3.718-13.646 2.742-4.794 8.852-6.456 13.645-3.718l9.144 5.228 14.203-17.406c3.492-4.278 9.791-4.916 14.07-1.426 4.279 3.492 4.917 9.791 1.426 14.07l-19.56 23.971c-1.957 2.399-4.831 3.68-7.753 3.68z"/><path d="m331.206 290.39h-65.5c-5.523 0-10-4.478-10-10 0-5.523 4.477-10 10-10h65.5c5.523 0 10 4.477 10 10s-4.478 10-10 10z"/><path d="m502 402.667h-13.5v-266.939c0-23.021-18.729-41.75-41.75-41.75h-62.078v-5.103c0-14.213-11.563-25.775-25.775-25.775h-20.566v-11.368c0-5.522-4.477-10-10-10h-28.105c-.445-8.14-3.112-16.247-7.927-23.921-2.572-4.099-6.133-7.613-10.298-10.162-15.339-9.391-33.141-10.155-47.62-2.042-13.238 7.418-21.727 21.097-22.585 36.125h-28.128c-5.523 0-10 4.478-10 10v11.368h-20.566c-14.213 0-25.776 11.563-25.776 25.775v5.103h-62.076c-23.021 0-41.75 18.729-41.75 41.75v266.939h-13.5c-5.523 0-10 4.477-10 10v35.311c0 35.29 28.71 64 64 64h146.794c5.523 0 10-4.478 10-10s-4.477-10-10-10h-146.794c-24.262 0-44-19.738-44-44v-25.311h136.715v10.057c0 14.474 11.775 26.249 26.25 26.249h146.071c14.474 0 26.25-11.775 26.25-26.249v-10.057h136.714v25.311c0 24.262-19.738 44-44 44h-146.794c-5.523 0-10 4.478-10 10s4.477 10 10 10h146.794c35.29 0 64-28.71 64-64v-35.311c0-5.523-4.477-10-10-10zm-308.331-340.935h28.874c3.033 0 5.903-1.377 7.801-3.743s2.619-5.466 1.961-8.427c-.385-1.731-.58-3.518-.58-5.309 0-8.778 4.764-16.901 12.434-21.198 8.198-4.592 18.184-3.992 27.401 1.651 1.545.946 2.859 2.237 3.798 3.734 4.364 6.956 5.864 14.259 4.338 21.12-.659 2.961.062 6.061 1.96 8.428 1.898 2.366 4.767 3.743 7.801 3.743h28.874v22.377h-124.662zm-46.342 27.144c0-3.185 2.591-5.775 5.776-5.775h20.566v11.009c0 5.522 4.477 10 10 10h144.662c5.523 0 10-4.478 10-10v-11.01h20.566c3.184 0 5.775 2.591 5.775 5.775v234.833c0 3.185-2.591 5.776-5.775 5.776h-205.794c-3.185 0-5.776-2.591-5.776-5.776zm197.958 313.791c-5.523 0-10 4.477-10 10v20.057c0 3.445-2.804 6.249-6.25 6.249h-146.071c-3.446 0-6.25-2.804-6.25-6.249v-20.057c0-5.523-4.477-10-10-10h-123.214v-266.939c0-11.993 9.757-21.75 21.75-21.75h62.077v209.73c0 14.213 11.563 25.776 25.776 25.776h205.794c14.212 0 25.775-11.563 25.775-25.776v-209.73h62.078c11.993 0 21.75 9.757 21.75 21.75v266.939z"/></svg>